<svg class="svg-icon" style="width: 1em;height: 1em;vertical-align: middle;fill: currentColor;overflow: hidden;" viewBox="0 0 1024 1024" version="1.1" xmlns="http://www.w3.org/2000/svg"><path d="M650.666667 85.333333a160 160 0 0 1 94.208 289.322667 165.333333 165.333333 0 1 1-193.066667 268.373333l-7.808-5.717333v136.021333A165.333333 165.333333 0 1 1 280.874667 640 165.12 165.12 0 0 1 213.333333 506.666667c0-53.930667 25.813333-101.845333 65.792-132.010667a160 160 0 0 1 85.76-289.109333L373.290667 85.333333h277.333333z m-170.666667 586.666667H378.666667a101.333333 101.333333 0 1 0 101.12 108.288l0.213333-6.954667V672z m0-266.666667H378.666667a101.333333 101.333333 0 0 0-6.954667 202.453334l6.954667 0.213333h101.333333V405.333333z m165.333333 0a101.333333 101.333333 0 1 0 0 202.666667 101.333333 101.333333 0 0 0 0-202.666667z m-165.333333-256h-106.666667a96 96 0 0 0 0 192h106.666667V149.333333z m170.666667 0h-106.666667V341.333333h106.666667a96 96 0 0 0 0-192z" fill="#000000" /></svg>