<svg class="svg-icon" style="width: 1em; height: 1em;vertical-align: middle;fill: currentColor;overflow: hidden;" viewBox="0 0 1024 1024" version="1.1" xmlns="http://www.w3.org/2000/svg"><path d="M498.036364 781.963636c-102.4 0-195.490909-55.854545-242.036364-148.945454l-13.963636-27.927273 32.581818 4.654546c11.636364 2.327273 20.945455 2.327273 27.927273 2.327272 130.327273 0 235.054545-104.727273 235.054545-235.054545 0-37.236364-9.309091-74.472727-25.6-107.054546l-13.963636-30.254545 32.581818 4.654545C665.6 258.327273 768 374.690909 768 512c0 148.945455-121.018182 269.963636-269.963636 269.963636z m-193.163637-137.309091c44.218182 62.836364 116.363636 102.4 193.163637 102.4 130.327273 0 235.054545-104.727273 235.054545-235.054545 0-109.381818-74.472727-200.145455-176.872727-228.072727 11.636364 30.254545 16.290909 60.509091 16.290909 90.763636 2.327273 148.945455-118.690909 269.963636-267.636364 269.963636z" fill="" /></svg>